<?xml version="1.0" standalone="no"?>
<!DOCTYPE svg PUBLIC "-//W3C//DTD SVG 20010904//EN"
 "http://www.w3.org/TR/2001/REC-SVG-20010904/DTD/svg10.dtd">
<svg version="1.0" xmlns="http://www.w3.org/2000/svg"
 width="1011.000000pt" height="1011.000000pt" viewBox="0 0 1011.000000 1011.000000"
 preserveAspectRatio="xMidYMid meet">
<metadata>
Created by potrace 1.14, written by Peter Selinger 2001-2017
</metadata>
<g transform="translate(0.000000,1011.000000) scale(0.100000,-0.100000)"
fill="#000000" stroke="none">
<path d="M5210 10106 c0 -2 30 -55 66 -117 172 -295 217 -450 185 -633 -7 -38
-11 -69 -9 -71 2 -1 98 -10 213 -19 568 -45 616 -53 990 -176 116 -38 280 -88
365 -110 85 -22 183 -54 217 -70 81 -40 154 -120 223 -246 30 -54 83 -142 119
-193 117 -173 171 -319 171 -461 0 -33 -7 -105 -16 -161 -19 -121 -9 -244 24
-288 10 -14 103 -95 206 -179 103 -85 194 -165 203 -179 19 -28 30 -87 73
-398 132 -936 145 -1020 161 -1023 22 -4 25 14 39 188 6 80 15 200 21 268 12
158 12 632 0 742 -6 47 -15 137 -21 200 -87 925 -389 1582 -980 2133 -423 394
-987 655 -1625 752 -163 25 -625 55 -625 41z"/>
<path d="M3604 6734 c4 -14 26 -69 50 -122 52 -116 76 -207 76 -288 l0 -59 63
-18 c34 -10 103 -22 152 -27 50 -5 135 -14 190 -20 110 -13 373 -6 465 12 72
14 174 63 200 95 13 16 20 41 20 67 0 56 -34 216 -54 254 -26 50 -45 55 -170
47 -292 -20 -618 0 -838 50 -84 19 -154 35 -156 35 -2 0 -1 -12 2 -26z"/>
<path d="M5988 6654 c-54 -23 -72 -68 -64 -161 14 -151 79 -251 189 -292 32
-12 99 -28 148 -37 80 -14 100 -14 197 0 179 26 298 35 599 47 344 14 457 9
736 -31 116 -17 214 -27 219 -22 4 4 11 35 14 69 8 76 -7 105 -102 192 -75 68
-179 125 -312 171 -162 55 -296 57 -552 9 -168 -32 -342 -32 -450 0 -230 67
-254 71 -424 70 -121 0 -170 -4 -198 -15z"/>
<path d="M5429 5929 c-7 -14 -6 -21 3 -24 23 -8 202 -35 206 -31 10 11 -56 40
-124 56 -72 17 -75 17 -85 -1z"/>
<path d="M4040 5876 c0 -3 10 -21 21 -41 17 -28 20 -47 17 -85 -7 -69 -51
-155 -88 -172 -17 -7 -30 -17 -30 -22 0 -5 118 -5 273 -1 232 6 278 10 315 25
61 27 57 52 -15 89 -32 16 -106 58 -166 94 -59 36 -131 74 -160 85 -51 19
-167 39 -167 28z"/>
<path d="M3450 5846 c-41 -12 -137 -42 -212 -66 -124 -39 -138 -46 -138 -66 0
-13 4 -25 8 -28 19 -12 442 -114 490 -118 53 -5 70 5 30 17 -31 10 -68 44 -80
75 -6 14 -13 66 -17 116 l-6 92 -75 -22z"/>
<path d="M6580 5775 c-110 -30 -172 -55 -295 -118 -109 -56 -145 -85 -145
-116 0 -41 33 -49 270 -61 124 -7 245 -16 270 -20 25 -5 46 -7 48 -5 2 1 -13
12 -32 24 -39 24 -70 70 -80 117 -10 46 11 124 45 167 35 43 32 43 -81 12z"/>
<path d="M7174 5725 c20 -31 21 -124 1 -191 -15 -52 -54 -97 -93 -109 -44 -13
-10 -25 71 -25 108 0 250 30 331 70 59 29 116 74 105 84 -11 10 -315 158 -361
176 -68 26 -74 25 -54 -5z"/>
<path d="M4319 4961 c-39 -40 -37 -69 12 -130 23 -29 43 -51 44 -49 42 44 85
108 85 125 0 30 -55 83 -87 83 -14 0 -37 -13 -54 -29z m78 -27 c13 -20 12 -25
-10 -50 -27 -31 -46 -29 -66 10 -13 23 -12 28 4 46 23 25 53 22 72 -6z"/>
<path d="M5516 4682 c-4 -7 4 -14 21 -18 97 -23 184 -94 260 -212 29 -45 65
-88 79 -94 18 -9 43 -9 97 0 149 22 241 -27 304 -163 38 -84 45 -232 15 -332
-45 -145 -96 -187 -244 -198 -49 -4 -88 -10 -88 -14 0 -14 69 -31 129 -31 173
0 301 175 301 409 0 126 -52 259 -150 389 -59 78 -160 184 -160 167 0 -4 18
-41 39 -80 l40 -72 -97 4 c-53 3 -109 9 -123 14 -14 6 -61 48 -103 95 -94 102
-151 135 -247 142 -42 3 -69 1 -73 -6z"/>
<path d="M4656 4088 c-30 -42 -21 -86 27 -133 59 -59 114 -70 245 -49 53 8 98
17 100 19 2 2 -12 28 -32 59 -50 79 -94 104 -197 116 -117 14 -126 13 -143
-12z"/>
<path d="M5708 4041 c-50 -32 -84 -72 -118 -140 -25 -51 -54 -141 -46 -148 2
-3 28 13 58 35 70 52 110 72 148 72 62 0 119 22 160 61 33 33 40 46 40 78 0
57 -25 71 -120 71 -67 0 -82 -4 -122 -29z"/>
<path d="M4990 3578 c57 -120 83 -211 78 -276 l-3 -46 60 -19 c38 -12 99 -20
170 -22 321 -11 400 -32 715 -187 260 -128 339 -177 428 -262 124 -117 175
-226 192 -408 11 -115 34 -185 84 -257 l36 -53 0 -429 c0 -236 -3 -429 -6
-429 -4 0 -69 16 -145 36 -77 19 -149 34 -161 32 -28 -4 -61 -50 -150 -208
-100 -180 -97 -177 -259 -200 -279 -39 -569 -71 -707 -77 -126 -5 -142 -8
-136 -22 69 -159 94 -307 94 -566 l0 -186 208 3 207 3 300 167 c165 91 379
207 475 258 218 114 273 164 314 284 15 42 37 209 66 486 36 343 62 561 96
795 48 337 55 523 30 715 -32 234 -39 249 -175 348 -245 181 -494 335 -741
458 -202 100 -295 137 -325 130 -13 -3 -60 -39 -104 -80 -103 -95 -163 -120
-268 -113 -90 5 -131 25 -285 141 -63 47 -120 86 -126 86 -6 0 11 -46 38 -102z"/>
<path d="M5135 3003 c11 -47 39 -86 75 -108 33 -19 52 -20 295 -20 237 0 263
-2 299 -19 45 -23 333 -212 516 -340 136 -95 131 -99 -32 -35 -237 94 -526
147 -897 165 l-144 7 7 -33 c3 -18 11 -39 17 -46 15 -18 116 -32 369 -48 270
-18 388 -38 664 -111 115 -30 211 -53 213 -51 20 20 -161 219 -302 333 -115
93 -274 197 -392 255 -88 44 -112 52 -177 56 -52 3 -96 -1 -147 -13 -88 -22
-206 -16 -293 14 -76 27 -80 26 -71 -6z"/>
<path d="M6235 2264 c-293 -99 -536 -146 -745 -144 -164 3 -174 2 -162 -13 6
-6 12 -28 14 -47 3 -35 3 -35 73 -47 226 -39 475 4 711 122 146 73 319 189
277 184 -5 0 -80 -25 -168 -55z"/>
<path d="M5275 1763 c4 -16 7 -28 8 -29 1 -1 40 -6 87 -13 47 -6 111 -16 144
-22 32 -5 61 -7 64 -4 9 9 -88 46 -186 71 -125 31 -126 31 -117 -3z"/>
</g>
</svg>
