<svg width="428" height="428" viewBox="0 0 428 428" fill="none" xmlns="http://www.w3.org/2000/svg">
  <path fill-rule="evenodd" clip-rule="evenodd"
    d="M106.5 2.61498C80.237 7.32598 57.767 19.145 38.396 38.437C18.982 57.772 7.17801 80.465 2.53301 107.381C0.242008 120.654 0.242008 307.346 2.53301 320.619C11.815 374.405 53.595 416.185 107.381 425.467C120.654 427.758 307.346 427.758 320.619 425.467C333.342 423.271 344.041 419.805 355.5 414.167C392.585 395.919 418.437 361.354 425.467 320.619C427.758 307.346 427.758 120.654 425.467 107.381C423.271 94.658 419.805 83.959 414.167 72.5C395.88 35.336 361.441 9.57798 320.619 2.53298C307.855 0.329983 118.834 0.401984 106.5 2.61498ZM325.499 36.323C342.686 41.695 355.177 49.11 367.018 60.97C378.677 72.648 386.456 85.77 391.685 102.579V102.579C393.525 108.493 394.475 114.649 394.503 120.843L394.776 179.411C395.075 243.671 394.999 247.245 393.363 245.911C392.412 245.135 384.404 238.296 375.567 230.713C354.752 212.851 345.142 208 330.574 208C325.15 208 315.772 210.443 309.5 213.489C306.75 214.825 294.218 224.711 281.65 235.459C269.083 246.207 258.013 255 257.051 255C256.088 255 236.221 237.647 212.901 216.438C189.58 195.23 168.523 176.489 166.107 174.792C151.83 164.766 128.75 164.337 114 173.822C110.585 176.018 58.205 222.87 35.704 243.855V243.855C34.6449 244.843 32.9182 244.087 32.925 242.639L33.224 178.981L33.497 120.858C33.5262 114.654 34.4776 108.488 36.32 102.564V102.564C41.605 85.569 49.199 72.765 60.982 60.982C74.984 46.98 93.537 37.305 112.66 34.031C115.322 33.576 162.275 33.272 217 33.357L307.072 33.4955C313.321 33.5051 319.534 34.4583 325.499 36.323V36.323ZM146.684 200.75C148.417 201.713 169.169 220.056 192.798 241.513C219.058 265.359 237.579 281.434 240.439 282.863C250.724 287.999 263.101 288.034 273.591 282.956C275.97 281.804 287.948 272.277 300.208 261.785C312.469 251.293 324.042 242.06 325.926 241.267C328.195 240.313 330.823 240.046 333.706 240.479C338.483 241.195 336.786 239.887 373.957 271.5L384.832 280.749C391.332 286.277 394.95 294.472 394.656 303V303C394.286 313.703 393.643 318.349 391.55 325.421C386.689 341.847 378.799 355.23 367.018 367.03C355.182 378.885 342.702 386.296 325.499 391.682V391.682C319.534 393.55 313.32 394.5 307.07 394.5H214H120.849C114.652 394.5 108.492 393.558 102.579 391.705V391.705C75.053 383.08 54.609 365.856 42.34 340.951C36.447 328.989 33.866 318.1 33.343 303V303C33.0469 294.439 36.5403 286.183 42.8911 280.435L81.469 245.519C108.195 221.329 131.06 200.982 132.281 200.304C135.527 198.5 143.051 198.733 146.684 200.75Z" />
</svg>