<svg width="338" height="409" viewBox="0 0 338 409" fill="none" xmlns="http://www.w3.org/2000/svg">
  <path fill-rule="evenodd" clip-rule="evenodd"
    d="M45.7344 1.54316C15.4571 10.1387 -4.59815 41.3173 0.910443 71.2279C6.31664 100.588 28.511 120.747 57.262 122.414C72.9686 123.323 83.4418 120.763 95.2477 113.128C113.434 101.366 123.24 83.0782 123.148 61.0939C123.074 43.8292 118.743 32.757 107.164 20.2423C95.0014 7.09848 82.405 0.99884 65.6088 0.121517C58.1067 -0.269116 50.1022 0.302423 45.7344 1.54316ZM74.5013 40.4768C81.4979 44.6569 84.8417 50.6541 85.5089 60.2214C86.0209 67.5409 85.4673 70.0816 82.357 74.702C68.7223 94.9493 37.8483 85.755 37.8483 61.4461C37.8483 51.232 42.1825 44.0645 51.0862 39.553C58.5963 35.7476 67.1528 36.0854 74.5013 40.4768ZM226.371 162.682C176.806 171.781 138.307 206.486 125.57 253.549C120.727 271.448 120.72 299.791 125.555 316.925C140.393 369.507 183.577 405.064 237.041 408.719C269.894 410.963 303.094 399.68 327.055 378.123C336.81 369.347 339.746 362.283 337.045 354.094C334.4 346.077 328.564 342.061 319.553 342.061C312.924 342.061 311.046 342.955 302.57 350.146C290.655 360.255 277.119 367.006 262.64 370.061C248.62 373.019 241.506 373.032 227.782 370.121C187.26 361.529 158.949 326.25 159.167 284.618C159.367 246.297 183.216 214.264 220.242 202.583C232.107 198.84 253.16 198.115 265.528 201.024C277.065 203.736 292.047 211.616 302.269 220.342C312.886 229.409 318.428 231.128 326.348 227.817C336.549 223.552 340.818 212.379 335.9 202.815C329.479 190.333 301.666 172.725 277.695 165.971C264.409 162.226 238.05 160.537 226.371 162.682Z" />
</svg>