<svg width="399" height="399" viewBox="0 0 399 399" fill="none" xmlns="http://www.w3.org/2000/svg">
  <path fill-rule="evenodd" clip-rule="evenodd"
    d="M194.452 0.973061C191.444 2.37516 188.969 4.76114 187.238 7.92581C186.01 10.1706 185.864 12.995 185.864 34.3643V58.2897L188.206 61.5917C191.12 65.7012 194.931 67.7868 199.526 67.7868C204.122 67.7868 207.932 65.7012 210.847 61.5917L213.189 58.2897V34.3643C213.189 10.8166 213.161 10.3898 211.391 7.30473C207.922 1.25941 200.104 -1.66338 194.452 0.973061ZM61.5262 56.169C54.0696 59.858 51.9046 68.2987 56.507 75.7414C57.3869 77.1638 65.0707 85.2065 73.5805 93.6129C85.0353 104.927 89.8304 109.153 92.0406 109.879C102.636 113.359 112.829 102.7 108.925 92.2201C107.728 89.0055 76.47 57.8036 72.6593 56.0192C68.5832 54.1107 65.6071 54.1505 61.5262 56.169ZM326.393 55.9763C322.564 57.8223 291.303 89.0641 290.127 92.2201C288.242 97.2792 289.676 103.183 293.702 106.944C297.621 110.607 301.212 111.396 306.842 109.834C309.32 109.147 313.012 105.936 325.457 93.6488C333.995 85.2182 341.858 76.8306 342.931 75.0103C349.554 63.7694 337.945 50.4077 326.393 55.9763ZM190.158 99.808C142.46 104.077 104.124 142.806 99.6308 191.26C96.3541 226.595 113.873 262.877 143.824 282.784C186.216 310.959 242.376 303.487 274.948 265.337C289.431 248.373 297.413 229.699 299.416 208.092C304.473 153.552 263.324 104.951 207.724 99.794C203 99.3563 198.609 99.0465 197.965 99.1058C197.321 99.1651 193.807 99.4811 190.158 99.808ZM220.05 129.72C244.722 137.117 261.883 154.248 269.551 179.137C271.505 185.48 271.664 187.016 271.664 199.648C271.664 212.28 271.505 213.816 269.551 220.159C265.562 233.107 259.071 243.89 250.167 252.359C241.608 260.501 232.217 265.886 220.05 269.63C213.702 271.583 212.166 271.742 199.526 271.742C186.886 271.742 185.35 271.583 179.003 269.63C154.119 261.973 137.163 245.028 129.501 220.159C127.547 213.816 127.389 212.28 127.389 199.648C127.389 187.016 127.547 185.48 129.501 179.137C137.792 152.229 157.032 134.516 184.781 128.245C188.302 127.449 193.209 127.198 201.478 127.391C211.36 127.621 214.26 127.985 220.05 129.72ZM10.9286 186.31C9.60996 186.64 7.4864 187.527 6.20836 188.281C-2.51149 193.429 -1.92439 207.285 7.20456 211.815C9.9566 213.18 12.1629 213.302 34.1417 213.302H58.0817L61.3857 210.961C65.4978 208.049 67.5846 204.24 67.5846 199.648C67.5846 195.057 65.4985 191.248 61.388 188.334L58.0848 185.994L35.7047 185.852C23.3959 185.774 12.2464 185.98 10.9286 186.31ZM341.823 186.336C335.823 187.823 331.468 193.476 331.468 199.778C331.468 204.246 333.589 208.074 337.667 210.961L340.971 213.302H364.911C388.473 213.302 388.9 213.274 391.987 211.505C396.752 208.775 399 204.973 399 199.648C399 194.323 396.752 190.521 391.987 187.791C388.933 186.04 388.269 185.99 366.6 185.852C354.362 185.774 343.213 185.992 341.823 186.336ZM91.8431 289.505C88.6117 290.432 59.188 319.081 56.1213 324.285C51.2457 332.562 56.0464 342.979 65.4392 344.502C71.197 345.436 73.23 344.001 90.8961 326.537C100.068 317.471 108.061 308.923 108.657 307.541C110.792 302.606 109.768 297.029 105.985 292.986C102.202 288.942 97.6806 287.829 91.8431 289.505ZM296.312 290.351C290.285 293.394 287.432 299.756 289.281 306.031C290.058 308.671 293.223 312.288 306.363 325.549C326.175 345.548 328.883 347.094 336.956 343.018C342.983 339.975 345.836 333.613 343.987 327.338C343.21 324.697 340.045 321.081 326.905 307.819C307.093 287.821 304.385 286.275 296.312 290.351ZM193.268 332.955C191.772 333.751 189.494 335.888 188.206 337.704L185.864 341.006V364.931C185.864 388.479 185.892 388.906 187.662 391.991C190.393 396.753 194.198 399 199.526 399C204.855 399 208.659 396.753 211.391 391.991C213.161 388.906 213.189 388.479 213.189 364.931V341.006L210.847 337.704C207.932 333.595 204.122 331.509 199.526 331.509C197.581 331.509 194.765 332.16 193.268 332.955Z" />
</svg>