<svg width="406" height="511" viewBox="0 0 406 511">
  <path fill-rule="evenodd" clip-rule="evenodd"
    d="M47.9716 1.81771C30.2636 7.48671 15.4776 20.0267 7.53764 36.1127C-0.560362 52.5197 0.00863832 35.9817 0.00863832 254.949C0.00863832 473.916 -0.560362 457.378 7.53764 473.785C14.0086 486.894 24.0286 496.914 37.1376 503.385C53.3286 511.377 43.1676 510.912 202.266 510.932C327.975 510.947 344.933 510.769 351.766 509.36C376.646 504.231 397.267 484.469 403.626 459.66C405.385 452.797 405.474 444.907 405.474 296.371V140.294L402.575 136.492C398.259 130.834 275.269 2.17671 273.03 0.978707C271.742 0.289707 235.125 -0.0332934 162.29 0.00270664C61.2306 0.0527066 53.0816 0.181707 47.9716 1.81771ZM254.989 66.1987C255.005 112.905 255.344 116.235 261.2 127.221C267.407 138.867 277.641 147.758 290.595 152.759L297.474 155.415L339.224 155.742L380.974 156.069V300.872C380.974 395.184 380.618 447.553 379.953 451.058C376.958 466.852 365.196 479.836 349.722 484.431C345.257 485.757 326.686 485.949 202.898 485.949C64.4326 485.949 61.0376 485.904 54.7666 483.967C41.8686 479.983 30.9396 469.054 26.9556 456.156C25.0086 449.851 24.9736 446.331 24.9736 254.949C24.9736 62.6397 24.9996 60.0767 26.9846 53.6497C30.9006 40.9697 41.8036 30.0197 54.5706 25.9417C60.1816 24.1497 65.2826 24.0537 157.724 24.0027L254.974 23.9487L254.989 66.1987ZM327.456 92.9487L363.088 130.449L332.903 130.714C303.012 130.976 302.668 130.956 297.551 128.613C290.652 125.454 285.946 121.161 282.948 115.292C280.481 110.462 280.473 110.356 280.195 76.9487L279.915 43.4487L285.87 49.4487C289.145 52.7487 307.859 72.3237 327.456 92.9487ZM198.045 170.701C196.159 171.662 193.684 173.719 192.545 175.272C190.51 178.045 190.465 179.282 189.974 246.897L189.474 315.699L164.116 288.387C148.64 271.719 137.397 260.429 135.268 259.418C128.65 256.278 120.1 260.546 118.51 267.784C117.197 273.761 119.703 276.964 157.198 317.239C177.397 338.934 195.043 357.42 196.413 358.317C197.783 359.215 200.893 359.949 203.325 359.949C207.241 359.949 208.311 359.406 212.68 355.199C220.902 347.284 283.338 279.899 285.36 276.758C291.434 267.326 282.694 255.619 271.976 258.83C268.693 259.814 263.716 264.644 241.76 288.16L215.474 316.312L214.974 246.836C214.418 169.612 214.841 174.012 207.648 170.598C203.286 168.529 202.284 168.539 198.045 170.701ZM95.4226 402.5C85.8956 407.202 87.4246 421.967 97.7496 424.966C100.344 425.72 132.881 425.957 204.974 425.748C304.711 425.46 308.576 425.38 311.275 423.551C316.919 419.725 318.478 412.928 315.014 407.248C310.934 400.555 317.93 400.947 202.774 400.972C111.93 400.992 98.0796 401.189 95.4226 402.5Z" />
</svg>