<svg xmlns="http://www.w3.org/2000/svg" viewBox="0 0 50 50">
  <path
    d="M 9 4 C 6.2504839 4 4 6.2504839 4 9 L 4 41 C 4 43.749516 6.2504839 46 9 46 L 41 46 C 43.749516 46 46 43.749516 46 41 L 46 9 C 46 6.2504839 43.749516 4 41 4 L 9 4 z M 9 6 L 41 6 C 42.668484 6 44 7.3315161 44 9 L 44 41 C 44 42.668484 42.668484 44 41 44 L 9 44 C 7.3315161 44 6 42.668484 6 41 L 6 9 C 6 7.3315161 7.3315161 6 9 6 z M 14.490234 11 C 13.254768 11 12.040671 11.09143 10.853516 11.267578 A 1.0001 1.0001 0 1 0 11.146484 13.246094 C 12.237329 13.084239 13.3537 13 14.490234 13 C 26.933826 13 37 23.065264 37 35.507812 C 37 36.645389 36.91663 37.76128 36.753906 38.851562 A 1.0001 1.0001 0 1 0 38.730469 39.148438 C 38.90774 37.96072 39 36.744237 39 35.507812 C 39 21.984362 28.014643 11 14.490234 11 z M 14.503906 21 C 13.203347 21 11.940704 21.172601 10.740234 21.496094 A 1.0001433 1.0001433 0 1 0 11.259766 23.427734 C 12.293296 23.149227 13.380465 23 14.503906 23 C 21.414305 23 27 28.614589 27 35.574219 C 27 36.672124 26.860939 37.736188 26.599609 38.75 A 1.0001 1.0001 0 1 0 28.535156 39.25 C 28.837826 38.075812 29 36.842313 29 35.574219 C 29 27.539848 22.501507 21 14.503906 21 z M 14.5 31 C 12.026466 31 10 33.023266 10 35.5 C 10 37.970962 12.023711 40 14.5 40 C 16.976289 40 19 37.970962 19 35.5 C 19 33.023266 16.973534 31 14.5 31 z M 14.5 33 C 15.898466 33 17 34.098734 17 35.5 C 17 36.891038 15.895711 38 14.5 38 C 13.104289 38 12 36.891038 12 35.5 C 12 34.098734 13.101534 33 14.5 33 z">
  </path>
</svg>