<svg width="369" height="368" viewBox="0 0 369 368" fill="none" xmlns="http://www.w3.org/2000/svg">
  <path fill-rule="evenodd" clip-rule="evenodd"
    d="M130.422 2.78497C102.929 11.7812 78.5902 26.3935 57.8396 46.3612C41.1269 62.4441 29.8606 77.6851 19.9458 97.6247C-16.2107 170.342 -2.39571 255.912 54.7717 313.341C90.9664 349.701 141.219 369.715 191.722 367.885C231.23 366.452 264.927 354.97 296.654 332.13C330.718 307.607 355.427 271.687 366.956 229.931C369.496 220.732 369.569 219.354 367.729 215.299C365.858 211.174 361.711 209.019 356.478 209.453C353.374 209.711 351.897 210.378 347.905 213.323C336.56 221.691 329.259 226.284 320.453 230.592C300.034 240.582 282.411 244.681 259.929 244.671C222.8 244.655 188.366 230.435 162.172 204.302C135.662 177.854 121.415 143.57 121.495 106.422C121.565 74.4219 130.928 45.8616 148.909 22.7982C153.432 16.9973 154.738 13.1717 153.549 9.20094C151.909 3.72062 146.862 -0.128818 141.491 0.00329876C139.964 0.0408402 134.983 1.2927 130.422 2.78497ZM109.931 44.1542C104.292 57.6481 100.342 72.7867 98.6758 87.2907C97.6554 96.1736 97.6532 116.892 98.6715 125.193C105.465 180.57 139.332 228.61 188.477 252.58C211.153 263.641 230.696 268.383 256.268 269.029C281.923 269.678 301.392 265.96 325.798 255.75C329.927 254.022 333.453 252.757 333.633 252.936C334.205 253.508 324.991 268.305 319.308 275.944C287.547 318.634 240.05 342.861 188.118 342.861C151.674 342.861 119.721 332.272 90.5041 310.513C70.619 295.703 53.6654 275.175 42.2253 252.054C30.7369 228.833 25.6842 206.991 25.7398 180.783C25.7881 158.016 28.9786 140.786 36.8337 120.861C48.5847 91.0564 70.1545 64.2894 96.8866 46.3395C102.037 42.8821 112.189 36.8047 112.888 36.7621C112.963 36.7578 111.632 40.0838 109.931 44.1542Z" />
</svg>