<svg viewBox="0 0 369 368">
  <g clip-path="url(#clip0_5_2)">
    <path fill-rule="evenodd" clip-rule="evenodd"
      d="M169.601 -0.701082C153.36 1.21003 144.55 2.88597 132.451 6.36741C72.7454 23.5435 24.282 71.9848 7.09812 131.663C1.58011 150.826 0 162.396 0 183.65C0 204.903 1.58011 216.474 7.09812 235.636C24.9342 297.577 76.1508 346.96 138.809 362.63C156.499 367.053 164.935 368.037 184.874 367.999C204.496 367.961 214.987 366.69 231.818 362.313C282.663 349.088 327.365 312.375 350.393 264.93C358.996 247.207 363.655 232.585 367.092 212.531C369.474 198.627 369.659 170.423 367.458 156.831C360.695 115.087 342.162 79.201 312.663 50.7323C285.116 24.1475 252.387 7.75866 213.768 1.21086C204.266 -0.399891 177.052 -1.57825 169.601 -0.701082ZM200.147 26.057C248.14 31.0345 290.765 56.9179 317.082 97.0653C364.921 170.046 344.289 268.229 271.024 316.246C253.023 328.044 232.66 335.927 209.228 340.169C198.268 342.153 170.654 342.153 159.694 340.169C142.383 337.035 130.679 333.326 116.061 326.339C83.0334 310.557 57.4858 285.01 41.6798 251.964C34.7269 237.427 31.0285 225.767 27.8616 208.405C25.8605 197.435 25.8605 169.864 27.8616 158.894C31.0318 141.512 34.7261 129.874 41.707 115.28C56.8964 83.5233 81.8001 58.0566 113.006 42.3683C131.341 33.1511 147.376 28.5458 170.839 25.7566C176.217 25.118 192.719 25.2871 200.147 26.057ZM113.009 105.594C109.628 107.066 106.22 111.266 105.561 114.771C104.208 121.981 103.835 121.503 136.003 153.737L165.856 183.65L136.003 213.563C103.724 245.908 104.203 245.291 105.597 252.718C106.359 256.78 111.298 261.716 115.361 262.478C122.792 263.871 122.175 264.35 154.535 232.085L184.461 202.247L214.387 232.085C246.747 264.35 246.13 263.871 253.561 262.478C257.624 261.716 262.563 256.78 263.325 252.718C264.719 245.291 265.198 245.908 232.919 213.563L203.067 183.65L232.919 153.737C265.198 121.392 264.719 122.009 263.325 114.581C262.563 110.52 257.624 105.584 253.561 104.822C246.13 103.428 246.747 102.949 214.382 135.22L184.45 165.063L154.942 135.612C138.713 119.413 124.388 105.771 123.11 105.296C120.002 104.141 116.08 104.257 113.009 105.594Z" />
  </g>
</svg>