<svg width="510" height="405" viewBox="0 0 510 405" fill="none" xmlns="http://www.w3.org/2000/svg">
  <path fill-rule="evenodd" clip-rule="evenodd"
    d="M465.459 1.45995C463.795 2.28305 456.847 8.55952 450.02 15.4087L437.609 27.8608L459.515 49.8051L481.422 71.7483L494.667 58.5319C515.038 38.2039 515.052 36.8061 495.061 16.549C487.572 8.9596 480.232 2.11344 478.752 1.33424C475.275 -0.492528 469.298 -0.436658 465.459 1.45995ZM366.63 98.9403C310.27 155.48 314.466 149.723 314.505 170.457C314.531 183.921 316.226 189.139 321.652 192.45C324.576 194.234 326.643 194.459 339.901 194.443C352.417 194.428 355.503 194.12 358.84 192.554C361.511 191.3 378.946 174.513 411.663 141.695L460.498 92.7098L439.082 71.2564C427.305 59.4577 417.204 49.8041 416.639 49.8041C416.073 49.8041 393.569 71.9149 366.63 98.9403ZM18.863 61.8332C11.8437 64.536 6.10626 69.7818 2.80194 76.5182L0 82.229V232.88V383.532L2.28561 387.817C5.9089 394.608 10.9685 399.499 17.328 402.355L23.2159 405L233.391 404.742L443.566 404.483L447.774 402.232C454.375 398.702 458.702 394.348 461.717 388.203L464.498 382.534L464.766 256.854L465.035 131.174L422.902 173.095C378.255 217.518 376.641 218.866 363.325 222.862C356.038 225.048 335.108 225.936 324.949 224.49C305.556 221.729 290.353 208.386 286.121 190.411C284.321 182.767 284.057 159.773 285.668 151.004C286.266 147.747 288.304 141.724 290.196 137.618C293.464 130.525 295.39 128.391 328.698 94.9665L363.76 59.781L193.841 59.8329C27.7503 59.8837 23.809 59.9286 18.863 61.8332ZM156.689 131.107C169.145 134.046 183.988 142.928 191.088 151.689C198.423 160.74 201.825 170.505 201.821 182.497C201.813 202.696 191.001 224.181 170.449 244.838C153.868 261.504 132.356 276.369 109.775 286.767L99.4565 291.518L98.8205 300.61C98.4706 305.611 97.8865 321.765 97.5237 336.508C96.9206 360.979 96.6814 363.665 94.7816 367.362C89.6432 377.361 75.4162 377.619 69.1813 367.827C67.1668 364.663 67.126 363.735 67.6563 333.545L68.2025 302.516L58.5218 304.86C46.1079 307.867 40.6685 307.892 36.3814 304.964C30.2103 300.747 27.9686 293.558 30.7715 286.973C33.2176 281.226 36.501 279.196 47.5503 276.594C53.195 275.265 60.8184 273.267 64.4925 272.153C71.1689 270.13 71.1719 270.127 71.7092 265.971C78.3128 214.845 86.2103 185.1 99.4126 161.629C104.666 152.293 118.412 138.112 125.594 134.621C136.03 129.548 145.535 128.474 156.689 131.107ZM136.795 163.493C126.749 169.869 117.863 187.905 110.561 216.741C107.934 227.112 102.865 255.359 103.514 256.009C103.719 256.214 107.2 254.514 111.251 252.233C144.067 233.744 169.62 205.747 171.65 186.058C172.715 175.734 167.763 168.142 156.559 162.92C149.286 159.531 142.738 159.721 136.795 163.493ZM229.877 238.162C237.161 241.971 240.504 247.49 242.048 258.256L243.214 266.373L249.194 260.276C258.083 251.215 264.087 248.75 273.143 250.444C279.834 251.695 284.028 255.127 291.487 265.456C296.468 272.355 298.716 274.705 300.123 274.48C301.168 274.312 313.168 271.016 326.79 267.154C354.179 259.388 355.924 259.251 361.79 264.406C367.97 269.837 368.856 278.244 363.932 284.706C362.569 286.496 360.192 288.463 358.651 289.077C350.648 292.269 298.805 306.211 294.938 306.211C286.162 306.211 280.245 302.115 272.492 290.672L268.188 284.319L258.193 294.149C249.049 303.14 247.724 304.083 242.637 305.215C228.177 308.432 214.867 297.256 214.791 281.835C214.755 274.741 213.517 275.612 197.376 294.097C178.183 316.075 175.141 317.883 165.341 313.135C160.986 311.025 156.992 305.008 156.992 300.557C156.992 295.528 160.615 290.504 181.566 266.474C199.273 246.165 204.945 240.294 208.966 238.118C215.911 234.36 222.633 234.375 229.877 238.162Z" />
</svg>